<svg width="59" height="47" viewBox="0 0 59 47" fill="none" xmlns="http://www.w3.org/2000/svg">
<path d="M25.4728 30.7393C25.2426 29.8753 24.709 29.0936 23.9447 28.5004L17.9561 23.8399C17.8147 23.7283 17.648 23.6433 17.4665 23.5901C17.285 23.5368 17.0928 23.5166 16.9018 23.5307C16.7108 23.5448 16.5253 23.5928 16.3569 23.6718C16.1886 23.7508 16.041 23.859 15.9236 23.9896C15.043 24.9619 14.7741 26.0401 15.1665 27.0256C15.4118 27.6416 15.8896 28.2861 16.4024 28.8598L12.0039 27.7278C11.7487 27.6617 11.5149 27.5451 11.3214 27.3872C11.1278 27.2293 10.9798 27.0346 10.8892 26.8186L10.2959 25.3887C9.98458 24.6453 9.41526 24.0026 8.6653 23.5479C7.91533 23.0931 7.0211 22.8485 6.10415 22.8472H2.01039C1.70318 22.8472 1.40006 22.9078 1.1243 23.0246C0.848541 23.1413 0.607482 23.3109 0.419634 23.5204C0.231785 23.7299 0.102144 23.9737 0.0406665 24.2332C-0.0208113 24.4926 -0.0124905 24.7607 0.0649896 25.0169L1.79499 30.8744C2.17134 32.1851 2.57288 33.2435 4.00213 33.9478L14.3446 39.0451C14.7196 39.2309 15.0321 39.4975 15.2515 39.8188C15.4709 40.14 15.5896 40.505 15.596 40.8777L15.6329 43.4083C15.633 43.4127 15.6331 43.4171 15.6332 43.4215C15.633 43.4288 15.6328 43.436 15.6328 43.4433C15.6328 45.4377 18.5382 46.9999 22.247 46.9999C25.177 46.9999 27.7143 46.0065 28.5608 44.5279C28.8314 44.0443 28.9002 43.4951 28.7556 42.9728L25.4728 30.7393ZM27.1652 43.9343C26.6746 44.7911 24.8279 45.6586 22.2471 45.6586C19.5527 45.6586 17.1892 44.6233 17.1892 43.4433C17.1892 43.436 17.189 43.4289 17.1888 43.4216C17.1892 43.4116 17.1892 43.4015 17.1891 43.3914L17.1522 40.8608C17.1418 40.2546 16.9487 39.6612 16.5919 39.1388C16.2352 38.6163 15.727 38.1828 15.1171 37.8807L4.77472 32.7834C3.94412 32.3741 3.66135 31.7903 3.30455 30.5479L1.57138 24.6799C1.55362 24.622 1.55153 24.5613 1.56527 24.5026C1.57901 24.4439 1.60821 24.3886 1.65063 24.3412C1.69304 24.2937 1.74754 24.2552 1.80992 24.2288C1.87229 24.2023 1.94088 24.1886 2.0104 24.1886H2.47128C2.47607 24.2283 2.48496 24.2675 2.49784 24.3059L4.77255 30.9653C4.853 31.1951 4.98742 31.4083 5.16745 31.5915C5.34748 31.7747 5.56929 31.924 5.8191 32.0303L7.81983 32.8777C8.00507 32.9561 8.21888 32.9679 8.41422 32.9105C8.60957 32.8531 8.77045 32.7312 8.86148 32.5715C8.9525 32.4119 8.96621 32.2276 8.8996 32.0592C8.83298 31.8908 8.69149 31.7522 8.50625 31.6737L6.50552 30.8263C6.44819 30.8021 6.39722 30.768 6.35575 30.7261C6.31427 30.6843 6.28317 30.6356 6.26435 30.583L4.0801 24.1886H5.33432L6.90738 29.2766C6.98478 29.519 7.12205 29.744 7.30978 29.9364C7.49751 30.1287 7.73127 30.2838 7.99503 30.3911L10.0615 31.2322C10.2481 31.3081 10.4621 31.3171 10.6564 31.257C10.8507 31.197 11.0093 31.0729 11.0974 30.9121C11.1856 30.7512 11.196 30.5668 11.1263 30.3993C11.0566 30.2319 10.9127 30.0951 10.726 30.0191L8.65955 29.178C8.59939 29.1538 8.54595 29.1187 8.50282 29.0752C8.45968 29.0317 8.42785 28.9807 8.40946 28.9257L6.98139 24.3065C7.4055 24.4231 7.79285 24.6221 8.11351 24.8882C8.43417 25.1543 8.67957 25.4804 8.83073 25.8412L9.42417 27.2711C9.59754 27.6849 9.88088 28.058 10.2515 28.3605C10.6222 28.663 11.0698 28.8865 11.5586 29.0132L18.6599 30.8408C18.829 30.8844 19.0103 30.8771 19.174 30.8201C19.3377 30.7632 19.474 30.6599 19.5607 30.5274C19.6473 30.3948 19.6791 30.2408 19.6507 30.0906C19.6224 29.9404 19.5357 29.803 19.4048 29.7009C18.7884 29.2198 17.0897 27.7231 16.6385 26.5901C16.3872 25.959 16.6963 25.3614 17.0444 24.9377L22.9016 29.496C23.4292 29.9054 23.7976 30.4451 23.9566 31.0415L27.2394 43.2751C27.3032 43.4956 27.277 43.7284 27.1652 43.9343Z" fill="#041F81"/>
<path d="M56.9899 22.8472H52.8962C51.9791 22.8485 51.0847 23.0933 50.3347 23.5482C49.5846 24.003 49.0153 24.6459 48.7042 25.3895L48.1113 26.8179C48.0208 27.0341 47.8727 27.229 47.6791 27.387C47.4855 27.545 47.2516 27.6617 46.9963 27.7279L42.5977 28.8599C43.1107 28.2862 43.5885 27.6417 43.8338 27.0256C44.2261 26.0402 43.9572 24.962 43.0765 23.9895C42.9591 23.8589 42.8116 23.7508 42.6432 23.6718C42.4749 23.5928 42.2894 23.5448 42.0984 23.5308C41.9074 23.5167 41.7151 23.5369 41.5337 23.5901C41.3522 23.6433 41.1856 23.7284 41.0442 23.8399L35.0555 28.5005C34.2912 29.0937 33.7577 29.8754 33.5274 30.7393L30.2445 42.9728C30.1 43.495 30.1688 44.0442 30.4394 44.5278C31.2859 46.0065 33.8232 46.9999 36.7532 46.9999C40.4621 46.9999 43.3674 45.4377 43.3674 43.4433C43.3674 43.436 43.3672 43.4288 43.367 43.4215C43.3672 43.4171 43.3672 43.4127 43.3673 43.4083L43.4042 40.8777C43.4106 40.505 43.5293 40.1401 43.7487 39.8188C43.9681 39.4975 44.2806 39.2309 44.6556 39.0451L54.998 33.9478C56.4273 33.2435 56.8288 32.1851 57.2039 30.8787L58.9334 25.0231C59.0121 24.7666 59.0214 24.498 58.9606 24.2379C58.8999 23.9778 58.7706 23.7332 58.5828 23.523C58.395 23.3127 58.1537 23.1425 57.8776 23.0253C57.6014 22.9081 57.2977 22.8472 56.9899 22.8472ZM57.4271 24.6861L55.6946 30.5522C55.339 31.7903 55.0562 32.374 54.2256 32.7834L43.8831 37.8807C43.2733 38.1828 42.7651 38.6163 42.4084 39.1388C42.0516 39.6612 41.8586 40.2546 41.8481 40.8608L41.8112 43.3914C41.8111 43.4015 41.8112 43.4116 41.8116 43.4216C41.8113 43.4289 41.8112 43.436 41.8112 43.4433C41.8112 44.6233 39.4477 45.6586 36.7533 45.6586C34.1725 45.6586 32.3257 44.7911 31.8351 43.9342C31.7233 43.7283 31.6971 43.4956 31.7609 43.275L35.0437 31.0416C35.2027 30.4452 35.5711 29.9055 36.0987 29.4961L41.9559 24.9378C42.3041 25.3616 42.613 25.9592 42.3618 26.5902C41.9121 27.7198 40.2123 29.2188 39.5955 29.701C39.4646 29.8031 39.3779 29.9405 39.3496 30.0907C39.3213 30.2409 39.353 30.3949 39.4397 30.5275C39.5263 30.66 39.6627 30.7633 39.8263 30.8202C39.99 30.8772 40.1713 30.8845 40.3404 30.8409L47.4416 29.0133C47.9306 28.8866 48.3784 28.6629 48.7491 28.3603C49.1198 28.0577 49.4032 27.6844 49.5765 27.2705L50.1693 25.842C50.3204 25.481 50.5658 25.1548 50.8866 24.8886C51.2073 24.6224 51.5947 24.4233 52.0189 24.3067L50.5926 28.9202C50.5747 28.9763 50.5429 29.0284 50.4994 29.0729C50.4559 29.1174 50.4018 29.1533 50.3408 29.1781L48.2743 30.0192C48.0877 30.0952 47.9437 30.2319 47.8741 30.3994C47.8044 30.5668 47.8148 30.7513 47.9029 30.9121C47.9911 31.073 48.1497 31.1971 48.344 31.2571C48.5383 31.3171 48.7523 31.3082 48.9389 31.2322L51.0053 30.3911C51.2699 30.2833 51.5044 30.1274 51.6924 29.9341C51.8805 29.7407 52.0177 29.5145 52.0947 29.2711L53.666 24.1886H54.9202L52.7372 30.5797C52.7186 30.633 52.6875 30.6823 52.6458 30.7248C52.6041 30.7672 52.5527 30.8018 52.4949 30.8264L50.3516 31.7342C50.2599 31.773 50.178 31.827 50.1105 31.8932C50.043 31.9593 49.9913 32.0363 49.9583 32.1196C49.9253 32.203 49.9117 32.2912 49.9182 32.3791C49.9248 32.467 49.9513 32.5529 49.9964 32.632C50.0415 32.711 50.1042 32.7816 50.1809 32.8398C50.2576 32.898 50.3469 32.9425 50.4437 32.971C50.5404 32.9994 50.6427 33.0111 50.7446 33.0055C50.8466 32.9999 50.9463 32.977 51.038 32.9381L53.1813 32.0303C53.4316 31.9238 53.6538 31.7739 53.8341 31.5901C54.0143 31.4063 54.1487 31.1925 54.2289 30.962L56.5026 24.3059C56.5155 24.2676 56.5243 24.2283 56.5291 24.1886H56.99C57.0602 24.1886 57.1294 24.2026 57.1922 24.2295C57.255 24.2564 57.3097 24.2955 57.3521 24.3437C57.3944 24.3919 57.4233 24.4479 57.4363 24.5073C57.4493 24.5667 57.4461 24.6279 57.4271 24.6861Z" fill="#041F81"/>
<path d="M40.2692 4.56944H35.8693V2.28472C35.8693 1.02337 34.6869 0 33.2294 0H24.4297C22.9722 0 21.7898 1.02337 21.7898 2.28472V4.56944H17.3899C15.9325 4.56944 14.75 5.59281 14.75 6.85417V20.5625C14.75 21.8239 15.9325 22.8472 17.3899 22.8472H40.2692C41.7266 22.8472 42.9091 21.8239 42.9091 20.5625V6.85417C42.9091 5.59281 41.7266 4.56944 40.2692 4.56944ZM24.4297 2.28472H33.2294V4.56944H24.4297V2.28472ZM34.9893 14.9459C34.9893 15.3665 34.5953 15.7075 34.1094 15.7075H31.1395V18.2778C31.1395 18.6984 30.7455 19.0394 30.309 19.0394H27.4491C26.9632 19.0394 26.5691 18.6984 26.5691 18.2778V15.7503H23.5497C23.0638 15.7503 22.6697 15.4093 22.6697 14.9887V12.5136C22.6697 12.0929 23.0638 11.752 23.5497 11.752H26.4701V9.13889C26.4701 8.71821 26.8642 8.37731 27.3501 8.37731H30.21C30.696 8.37731 31.0405 8.71821 31.0405 9.13889V11.7092H34.1094C34.5953 11.7092 34.9893 12.0501 34.9893 12.4708V14.9459Z" fill="#041F81"/>
</svg>
